<svg xmlns="http://www.w3.org/2000/svg" width="1280" height="1280" viewBox="0 0 1280 1280">
  <defs>
    <style>
      .cls-1 {
        fill-rule: evenodd;
      }
    </style>
  </defs>
  <path id="_8" data-name="8" class="cls-1" d="M322.9,722.693q-46.468,78.359-46.456,172.046,0,170.072,123.621,267.711,104.712,82.68,262.2,82.68,169.284,0,271.258-100T1035.49,885.29q0-96.849-50-170.865t-146.062-112.6q75.589-33.071,117.322-95.669t41.732-142.912q0-129.128-90.944-213.384T652.031,65.611q-166.147,0-256.3,84.252-90.168,84.263-90.156,213.384,0,75.589,38.976,138.975t124.8,99.606Q369.35,644.347,322.9,722.693ZM552.819,279q37.8-37.794,101.574-37.8,61.417,0,98.818,37.4t37.4,99.605q0,66.141-37.795,103.543t-100.786,37.4q-62.211,0-99.606-37.007T515.024,379Q515.024,316.8,552.819,279Zm-18.5,473.225q39.751-55.9,120.865-55.9,70.073,0,115.748,49.213,45.655,49.218,45.669,130.314,0,92.918-44.882,142.128T658.33,1067.18q-70.091,0-116.928-51.18-46.857-51.177-46.85-142.521Q494.552,808.132,534.315,752.22Z"/>
</svg>
