<svg xmlns="http://www.w3.org/2000/svg" width="1280" height="1280" viewBox="0 0 1280 1280">
  <defs>
    <style>
      .cls-1 {
        fill-rule: evenodd;
      }
    </style>
  </defs>
  <path id="_5" data-name="5" class="cls-1" d="M403.214,1158.52q100.781,85.83,260.628,85.82,199.992,0,312.6-152.75,82.683-111.795,82.672-254.331,0-170.853-102.357-277.951-102.367-107.073-249.6-107.085-77.178,0-151.18,37.007l34.645-196.061H1007.93V86.083H422.9L309.514,686.867,489.04,712.851Q564.63,628.605,659.905,628.6q76.365,0,124.015,53.149Q831.551,734.9,831.557,841.2q0,113.385-48.031,169.684T666.2,1067.18q-60.642,0-107.086-43.7-46.469-43.7-55.905-118.5L282.742,927.81Q302.415,1072.7,403.214,1158.52Z"/>
</svg>
