<svg xmlns="http://www.w3.org/2000/svg" width="1280" height="1280" viewBox="0 0 1280 1280">
  <defs>
    <style>
      .cls-1 {
        fill-rule: evenodd;
      }
    </style>
  </defs>
  <path id="_9" data-name="9" class="cls-1" d="M385.648,1155.77q86.22,73.605,217.715,73.62,187.407,0,304.723-140.16,117.333-140.158,117.324-457.475,0-309.445-112.6-445.272T625.41,50.657q-162.99,0-266.927,107.086T254.547,441.993q0,166.921,98.818,272.439t237.4,105.511q122.834,0,205.51-97.637-12.585,199.2-61.023,262.2-48.424,62.986-118.5,62.991-52.743,0-85.826-31.5t-40.945-97.633L275.807,941.989Q299.427,1082.136,385.648,1155.77ZM733.284,606.952q-44.088,49.993-107.874,50-66.141,0-110.235-52.362T471.081,439.631q0-109.455,40.944-157.479T614.387,234.12q63.779,0,113.385,58.661t49.606,166.535Q777.378,556.941,733.284,606.952Z"/>
</svg>
