<svg xmlns="http://www.w3.org/2000/svg" width="1280" height="1280" viewBox="0 0 1280 1280">
  <defs>
    <style>
      .cls-1 {
        fill-rule: evenodd;
      }
    </style>
  </defs>
  <path id="_6" data-name="6" class="cls-1" d="M919.352,139.233q-86.22-73.616-217.715-73.622-187.407,0-304.723,140.157Q279.581,345.929,279.592,663.245q0,309.446,112.6,445.275t287.4,135.82q162.99,0,266.927-107.08T1050.45,853.007q0-166.921-98.815-272.439t-237.4-105.511q-122.834,0-205.51,97.637,12.585-199.2,61.023-262.2,48.424-62.985,118.5-62.991,52.743,0,85.826,31.5t40.945,97.638l214.168-23.622Q1005.58,212.866,919.352,139.233ZM571.716,688.048q44.088-49.993,107.874-50,66.141,0,110.235,52.362t44.094,164.959q0,109.455-40.944,157.481t-102.362,48.03q-63.779,0-113.385-58.66T527.622,835.684Q527.622,738.06,571.716,688.048Z"/>
</svg>
