<svg xmlns="http://www.w3.org/2000/svg" width="1280" height="1280" viewBox="0 0 1280 1280">
  <defs>
    <style>
      .cls-1 {
        fill-rule: evenodd;
      }
    </style>
  </defs>
  <path id="_3" data-name="3" class="cls-1" d="M392.4,1154.19q103.143,90.165,259.84,90.15,165.354,0,276.376-107.08T1039.64,878.2q0-104.712-59.446-178.739-59.461-74-158.66-95.275,166.128-90.539,166.14-242.518,0-107.073-81.1-192.125Q808.136,65.612,645.157,65.611q-95.282,0-172.046,35.827T353.427,199.862q-42.926,62.6-64.173,167.322l203.935,34.645q8.656-75.59,48.819-114.96t96.85-39.369q57.467,0,92.125,34.645,34.64,34.658,34.645,92.913,0,68.5-47.243,109.842T581.378,523.876L556.969,704.189q59.053-16.534,101.574-16.535,64.554,0,109.448,48.818t44.881,132.283q0,88.194-46.85,140.155t-115.353,51.97q-63.78,0-108.661-43.31-44.882-43.29-55.118-125.193L272.719,918.361Q289.254,1064.04,392.4,1154.19Z"/>
</svg>
