<svg xmlns="http://www.w3.org/2000/svg" width="1280" height="1280" viewBox="0 0 1280 1280">
  <defs>
    <style>
      .cls-1 {
        fill-rule: evenodd;
      }
    </style>
  </defs>
  <path id="_2" data-name="2" class="cls-1" d="M587.464,1019.15q17.311-29.919,45.276-61.419,27.939-31.484,132.676-127.558Q870.126,734.116,910.3,682.93q60.622-77.16,88.582-147.637,27.946-70.46,27.951-148.424,0-137.007-97.636-229.133t-268.5-92.125q-155.9,0-259.841,79.527T277.23,407.341L497.7,429.388Q504,332.539,544.945,290.806q40.932-41.726,110.235-41.732,70.073,0,109.842,39.764,39.751,39.769,39.764,113.779,0,66.935-45.669,135.432-33.864,49.605-183.464,188.975Q389.817,899.464,326.836,1003.79q-63,104.34-75.59,220.87H1026.83V1019.15H587.464Z"/>
</svg>
