<svg xmlns="http://www.w3.org/2000/svg" width="1280" height="1280" viewBox="0 0 1280 1280">
  <defs>
    <style>
      .cls-1 {
        fill-rule: evenodd;
      }
    </style>
  </defs>
  <path id="_0" data-name="0" class="cls-1" d="M392.19,183.72Q278.805,327.039,278.805,653.009q0,332.292,103.149,461.811t271.652,129.52q167.715,0,261.415-118.11,113.385-143.295,113.389-470.859,0-328.344-112.6-470.076Q821.322,65.618,653.606,65.611T392.19,183.72h0Zm332.675,90.945q31.1,25.6,51.574,101.574,20.466,76,20.473,279.132T774.077,943.558q-17.328,66.141-48.818,91.732t-71.653,25.59q-40.158,0-71.26-25.2T530.772,934.5Q510.287,858.525,510.3,655.371T533.134,366.4q17.31-66.141,48.819-91.731,31.484-25.578,71.653-25.591T724.865,274.665Z"/>
</svg>
